# xmcd CD database file
#
# Track frame offsets:
#	150
#	22264
#	40943
#	56999
#	78677
#	96903
#	106504
#	119779
#
# Disc length: 1650 seconds
#
# Revision: 0
# Processed by: cddbd v1.5.2PL0 Copyright (c) Steve Scherf et al.
# Submitted via: CDex 1.51
#
DISCID=6f067008
DTITLE=Zooty - Fanfare et MC
DYEAR=1900
DGENRE=Jazz
TTITLE0=évidence
TTITLE1=choo bang
TTITLE2=boite à zooty
TTITLE3=liberté
TTITLE4=ata
TTITLE5=lisbonne
TTITLE6=zoot'train
TTITLE7=jingle
EXTD=
EXTT0=
EXTT1=
EXTT2=
EXTT3=
EXTT4=
EXTT5=
EXTT6=
EXTT7=
PLAYORDER=
